<svg fill="#670E89" preserveAspectRatio="xMidYMid meet" viewBox="14 13 803 803" xmlns="http://www.w3.org/2000/svg"><g><path d="M75.5 14.7C50 20.1 29.6 37.1 19.7 61c-11.3 27.2-5.3 59.4 15 81l7.4 7.9-6.6 9.2c-10.8 15.1-16.9 29.8-20 48.3-1.3 7.7-1.5 41.8-1.5 261 0 223.1.2 253.1 1.6 261.1 7.4 43.2 38.9 75.7 82.2 84.6 9.2 1.9 17 1.9 359.4 1.9 331.5 0 350.1-.1 353-1.8 1.6-.9 3.8-3.4 4.9-5.4 1.9-3.6 1.9-10.5 1.9-296 0-190.4-.4-293.5-1-295.9-.6-1.9-2.2-4.6-3.6-6-2.5-2.3-3.1-2.4-20.2-2.7-9.7-.2-18-.7-18.5-1.1-.4-.4-.1-3.6.7-7.2 7-31.2 2.7-67.1-11.9-98.3-15.7-33.8-48.2-64.2-83-77.6-17.4-6.7-40.1-11-57.3-11-22.1.1-47.5 6.1-67.7 16.2-32.5 16.2-56.6 40.6-72.1 73.2-14.3 30.2-18.4 63.8-11.8 96.4.8 4 1.2 7.7.9 8.2-.4.6-28.4 1-77.3 1h-76.7l-89-88.9c-69-68.9-90.6-89.9-96-93.4-17.4-11-38.1-15.1-57-11zM635.4 39c44.4 4.2 83 31 103.3 71.5 10 19.9 13.9 38.6 13 62.9-1.1 31.2-8.4 49.7-32.1 82.1-7.1 9.6-19.2 32.8-22.7 43.5-4 12.4-7 25.6-8 36-1.7 17 .1 15.1-14.7 14.8l-12.7-.3-.3-38.8-.2-38.7h8.1c15.2 0 25-3.9 33.7-13.5 11.6-12.7 13.2-31.3 3.8-45.9-4.1-6.5-8.9-10.6-16.2-14.2-5.3-2.6-6.9-2.9-15.9-2.9-8.9 0-10.7.3-16 2.8-7.9 3.7-15.6 11.4-19.1 19.1-2.4 5.2-2.9 7.7-3.2 17.3l-.4 11.3h-26.6l-.4-11.3c-.3-9.6-.7-12-3.1-17.2-3.5-7.6-10.5-14.8-18.2-18.8-5.6-2.9-6.7-3.1-16.5-3.2-10 0-10.8.2-17.2 3.4-22.9 11.5-28.6 41-11.6 59.6 8.7 9.6 18.5 13.5 33.7 13.5h8.1l-.2 38.7-.3 38.8-12.7.3c-7.1.1-12.8-.1-12.8-.6 0-2.9-3.2-25-4.5-31.2-2.4-11.3-8.1-27.3-14-39-5-10-10.3-18.3-23.4-36.9-23.1-32.9-29.5-75.5-16.9-114.1 15.6-48.3 59.6-84.2 108.9-88.9 12.3-1.2 15.3-1.2 27.3-.1zm-529.3 2c3.5 1 8.7 3.3 11.4 5.1 5.4 3.4 32.5 29.6 32.5 31.4 0 .9-65.6 67.4-70.4 71.5-1.1.8-4.4-1.9-15.7-13.4-15.3-15.6-18.7-20.1-22-29.8-3.1-9-3.1-22.8.1-31.8 4.8-13.6 14.8-24.7 27.3-30.5 8.7-4 9.7-4.2 21.3-4.4 6.6-.1 11 .5 15.5 1.9zm73.6 65.2c5.1 5.1 9.3 9.7 9.3 10.3 0 .5-16.1 17.1-35.8 36.8l-35.9 35.8-8.9-8.9c-4.9-4.9-9.5-9.6-10.3-10.6-1.3-1.6 1.7-4.9 34-37.2C151.5 112.9 168.2 97 169 97c.8 0 5.6 4.2 10.7 9.2zm96.5 96.5c37.3 37.3 67.8 68.1 67.8 68.5 0 .5-4.7.8-10.5.8-8.6 0-11.3.4-14.5 2-4.8 2.4-7 6.4-7 12.3 0 2.4-.3 4.7-.7 5.1-1 .9-129.3-127.5-129.3-129.4 0-1.3 24.7-27 26-27 .3 0 31 30.5 68.2 67.7zm-148 33 66.8 66.8v170.2c0 93.7-.2 170.3-.5 170.3-.2 0-2.6-2.2-5.2-4.8-14-14-33.1-23.7-54.2-27.6-30.5-5.7-65.4 5-88.3 27.2-4.7 4.5-6.9 6.1-7.3 5.1-.3-.8-.4-98.2-.3-216.4l.3-215 2.2-7.8c3.9-13.5 15.3-34.6 18.8-34.7.5 0 31 30 67.7 66.7zM228.5 246l65 65h-4.8c-2.8 0-6.4.8-8.6 2-5.7 2.8-7.1 6.7-7.1 19.2 0 5.8-.3 10.7-.6 11-.6.6-136.4-134.8-136.4-136 0-1.1 25.4-26.2 26.5-26.2.5 0 30.3 29.2 66 65zm348.4-24.5c5 2.5 7.1 7.5 7.1 16.6v7.9h-8.7c-9.7-.1-12.4-1-15.4-5.6-2.4-3.6-2.5-11.1-.3-14.3 3.9-5.5 11.6-7.6 17.3-4.6zm103.8.5c6.4 3.9 8.4 11.1 4.9 17.8-2.5 4.8-6.2 6.2-16.1 6.2H661v-7.5c0-5.5.5-8.6 1.9-11.4 3.4-6.6 11.6-9 17.8-5.1zm-195.4 18.4c3.7 7.2 8.2 14.1 20 30.6 11.1 15.4 19.3 34.8 23.8 56.3 1.9 8.6 2.3 14.8 2.9 40.2.6 28 .8 30.4 2.9 35.7 4.6 11.7 16.5 21.2 29.1 23.3l6.5 1.1.7 5.9c2.7 21 18.1 38.7 38.3 44 7.6 1.9 18.4 1.9 26 0 19.2-5 34.7-21.9 37.7-41.1.6-3.8 1.2-7.4 1.3-8 .2-.6 2.9-1.4 6.1-1.8 11.9-1.4 24.9-11.6 29.5-23.4 2.2-5.3 2.4-7.6 3-35.7.7-31.6 1.6-40 6.2-55 5.3-17.2 12.2-30.6 24.6-47.4 7.5-10.3 12.4-18 17.3-27.1l2.3-4.5 13.8-.3 13.7-.3V790l-344.7-.2-344.8-.3-7.6-2.7c-15.4-5.5-27.5-13.7-36.7-25.3-6.5-8-9.6-13.6-13.2-23.3-6.9-18.9-5.9-38.2 2.9-57.5 12.4-27.6 40.3-45.6 70.4-45.7 12.7 0 22.5 2.3 34.6 8.1 9.1 4.4 11.6 6.3 19.6 14.2 14.4 14.4 22.1 30.7 23.2 49.5.8 13.1 4.6 18.2 13.3 18.2 4.7 0 8-1.8 10.7-5.9l2.3-3.4V522.9c0-106.1.3-192.9.8-192.9.4 0 13.3 12.6 28.7 28.1 15.4 15.4 29.1 28.5 30.5 29.1 1.4.5 18.9 5.9 39 11.9s42.1 12.7 49 14.8c47 14.8 48.8 15.1 54.8 9.7 3.4-3.2 3.7-3.9 3.7-8.8 0-2.9-1-8.2-2.2-11.8-1.1-3.6-3.1-9.9-4.3-14-1.2-4.1-3.5-11.6-5-16.5-1.6-5-4-12.8-5.4-17.5-1.4-4.7-4.8-16.2-7.6-25.5-2.9-9.4-5.8-19-6.5-21.5-6.3-21.5-8.6-28.4-10.4-30.7-1.1-1.6-11-11.8-22-22.8-11.1-11-20.1-20.3-20.1-20.7 0-.5 30.9-.8 68.8-.8h68.7l3.8 7.4zM635.5 311v38.5h-26l-.3-37.5c-.1-20.6 0-38.1.3-38.8.3-.9 3.6-1.2 13.2-1l12.8.3V311zM370 308.2c1.8 5.7 4.1 13.2 5.2 16.7l2 6.3-22.5 22.6-22.5 22.5-14.9-4.3c-8.1-2.3-15.8-4.9-17.1-5.7-2.2-1.3-2.2-1.8-2-15.1l.3-13.7 14.5-.5c22.8-.8 24-2 24-24.5V298h29.9l3.1 10.2zm18.9 62.5c5.4 18.1 7 23.8 6.6 24.1-.2.2-5.9-1.2-12.7-3.3-6.8-2-14.1-4.1-16.3-4.7-2.2-.6-4.4-1.5-5-2-.6-.5 3.7-5.5 11-12.8 6.6-6.6 12.3-12 12.6-12 .3 0 2.1 4.8 3.8 10.7zM687 384.2c0 6.5-.4 9-2 11.5-3.8 6.3-3.6 6.3-62.7 6.3-51.5 0-53.5-.1-57.3-2-5.5-2.8-7-6.2-7-16v-8h129v8.2zm-39 46.5c0 7.3-6 15.7-14.5 20.2-5.5 2.9-16.5 2.9-22 0-8.1-4.3-13.3-11.2-14.2-19l-.6-4.9H648v3.7z"></path><path d="M623 77.5v12.4l3.3.5c1.7.3 5.5.8 8.2 1.1 2.8.3 8.4 1.7 12.5 3.1 28.3 9.2 50.2 36.3 52.8 65.2l.7 7.7 12.8.3 12.7.3v-3.3c0-5.2-2.9-20.7-5.2-27.8-9.8-30.8-34.7-56.1-65.3-66.4-7.9-2.7-23.2-5.6-29.2-5.6H623v12.5z"></path><path d="M369.8 455.6c-4.4 2.3-5.3 5-5.8 17.8l-.5 11.9-7 2.7c-3.8 1.4-8.5 3.4-10.3 4.4l-3.4 1.7-8.2-7.9c-9.3-9-13.4-10.6-19.7-7.9-2 .8-12 10.2-23.5 21.8-20.9 21.2-21.4 21.9-20.6 29.3.3 1.9 2.9 5.4 8.4 11.1 6.7 7.1 7.9 8.8 7.3 10.7-.4 1.3-1.1 2.7-1.5 3.3-.4.5-1.9 4.3-3.4 8.2l-2.8 7.3h-10.4c-12.2 0-16.4 1.3-19.4 6.2-1.9 3.1-2 5-2 32.1 0 32 .3 33.6 6.3 37.2 2.5 1.6 5.7 2.1 14.5 2.5l11.3.5 3.5 8.5c1.9 4.7 3.8 9.3 4.1 10.3.4 1.4-1.5 3.9-7.1 9.6-8 8-9.5 11.1-8.8 17.6.5 4.4 41.2 45 46 45.8 5.8 1.1 9.1-.3 15.6-6.7 11-10.8 9.8-10.1 14.8-7.8 2.4 1.1 7 3.1 10.3 4.4l6 2.3.5 12c.8 20-.1 19.5 38.2 19.5 32.1 0 32.6-.1 36.5-5.9 2-3 2.3-4.6 2.3-14.3v-10.9l4.8-2c2.6-1.1 7.3-3.2 10.4-4.6l5.7-2.6 8.4 8c8.9 8.5 12 9.9 18.2 8.2 2-.6 9.9-7.8 23.9-21.7 20.1-20.2 20.8-21.1 21.3-25.5.7-5.7-1.1-8.7-10-17.5l-6.3-6.3 4-10.3 4.1-10.4 11.7-.3c13.1-.4 15.8-1.6 19-8 1.6-3 1.8-6.7 1.8-30.9 0-30.7-.3-32.3-6.9-36.7-3-2-4.6-2.3-14.3-2.3-9.4 0-10.9-.2-11.5-1.8-.3-.9-2.3-5.7-4.4-10.5l-3.7-8.8 7.5-7.7c8-8.2 9.3-10.4 9.3-15.6 0-4.7-3.2-8.6-24.1-29.2-19.4-19.1-21.2-20.4-28.1-18.8-2.2.4-6 3.3-11.4 8.5l-8 7.9-8.5-3.6c-4.6-1.9-9.4-3.9-10.6-4.4-2-.8-2.2-1.7-2.5-13l-.3-12.2-3.7-3.4-3.8-3.4h-30.2c-24.8.1-30.8.3-33 1.6zm45.2 32.1c0 6.6.5 9.6 2 12.8 2.3 4.8 3.3 5.4 16 9.6 5.2 1.7 13.7 5.3 18.8 8 13.2 7 16.2 6.6 26.2-3.5 3-3.1 5.9-5.6 6.5-5.6.6 0 5 3.9 9.8 8.8l8.7 8.8-6.1 5.9c-8.9 8.7-10.5 13.4-7 20.3 1 2 3.4 6.8 5.3 10.7 1.9 3.8 4.5 10.1 5.7 14 5.3 16.7 7.4 18.5 22 18.5h9.1v26h-9.7c-14.6 0-15.7.9-21.2 17.6-2.9 9-5.1 14-10.4 23.8-1.5 2.7-2.7 6.1-2.7 7.6 0 3.4 3.7 8.9 10.2 15.3l5 4.9-8.8 8.9c-4.9 4.9-9.3 8.9-9.9 8.9-.5 0-2.6-1.7-4.6-3.8-11.7-12.3-13.8-12.7-29.1-4.9-5.6 2.9-13 6.1-16.3 7-17.1 5-18.9 7-19.2 21.1-.1 4.9-.6 9.3-1.1 9.8-.5.5-6.2.7-12.8.6l-11.9-.3-.5-10.6c-.6-13.4-2-15.6-12-18.5-9.9-2.8-16.4-5.5-24.7-10-8.4-4.6-13.3-5.5-17.6-3.3-1.2.6-5 3.9-8.5 7.2l-6.2 6.2-9.2-9.2-9.2-9.2 7.2-7.5c6.8-7 7.2-7.6 7.2-12 0-3.5-1.1-6.7-4.9-14-2.8-5.2-6.4-13.8-8.1-19.3-4.7-15.1-6.2-16.3-20.2-16.3H273v-26h9c14.3 0 16.3-1.6 21.5-17.5 2-6 5.6-14.7 8-19.2 3.5-6.4 4.5-9.3 4.5-12.9 0-4.4-.4-5-7-11.8-3.8-4-7-7.7-7-8.2 0-1.4 16.3-17.4 17.7-17.4.7 0 3.4 2.3 6 5.1 6 6.3 10.1 8.9 14.2 8.9 1.7 0 7.8-2.3 13.8-5.3 11.6-5.8 13.5-6.5 23.1-9.3 4.6-1.3 7.1-2.7 9.2-5.1 2.9-3.2 3-3.7 3-13.2 0-5.4.3-10.1.7-10.4.3-.4 6.2-.7 13-.7H415v8.7z"></path><path d="M388.7 532.6c-46.8 8.4-75 56.8-59.4 101.9 13.2 38.5 55.2 60.1 94.7 48.8 23.2-6.6 43.9-26.2 51.6-48.8.8-2.5 2.2-8 3-12.1 4-21.3-1.7-44.1-15.6-61.5-12.3-15.5-29.1-25.2-49-28.5-10.3-1.7-15.1-1.7-25.3.2zm25.7 25.9c9.9 2.6 16.6 6.5 24.1 14 10.9 10.9 15.5 21.6 15.5 36 0 24.4-16.6 45.3-40.6 51-22.5 5.4-47.2-6.6-57.4-27.9-8.5-17.9-7.3-35.1 3.7-51.8 11.6-17.7 34.4-26.6 54.7-21.3z"></path><path d="M610.2 522.2c.4 14.5.9 18.4 2.8 23.8 7.2 21.1 21.6 36.6 41 44.3 9.1 3.6 14.7 4.7 27.5 5.6 22 1.6 37.6 10.3 48.5 27.2 5.6 8.6 8.1 16.7 8.7 27.9.6 11.3-1.1 19.7-5.9 29.7-4.7 9.6-15.8 20.6-25.9 25.6-13.3 6.5-15.6 6.7-93.1 6.7H545v25.1l76.3-.3 76.2-.3 8-2.8c13.3-4.7 23-10.4 32.2-19 14.6-13.9 22-27.4 25.8-47.2 1.9-10.2 1.9-18.1 0-28.6-5-26.9-21.3-48.8-45-60.5-11.3-5.6-21.8-8.3-36.5-9.3-13.3-1-20.4-3.3-28.1-9.1-13.5-10.1-18.8-22.7-18.9-44.8V505h-25.2l.4 17.2z"></path></g></svg>